<mxfile host="Electron" modified="2023-10-23T09:46:35.928Z" agent="Mozilla/5.0 (Windows NT 10.0; Win64; x64) AppleWebKit/537.36 (KHTML, like Gecko) draw.io/22.0.2 Chrome/114.0.5735.289 Electron/25.8.4 Safari/537.36" etag="rvYnV3YWdy3hYKPIsUb8" version="22.0.2" type="device">
  <diagram id="R2lEEEUBdFMjLlhIrx00" name="Page-1">
    <mxGraphModel dx="1274" dy="605" grid="1" gridSize="10" guides="1" tooltips="1" connect="1" arrows="1" fold="1" page="1" pageScale="1" pageWidth="850" pageHeight="1100" math="0" shadow="0" extFonts="Permanent Marker^https://fonts.googleapis.com/css?family=Permanent+Marker">
      <root>
        <mxCell id="0" />
        <mxCell id="1" parent="0" />
        <mxCell id="BN0zJVYFSK5SitSiGwVD-1" value="Routes" style="shape=table;startSize=30;container=1;collapsible=1;childLayout=tableLayout;fixedRows=1;rowLines=0;fontStyle=1;align=center;resizeLast=1;html=1;" parent="1" vertex="1">
          <mxGeometry x="111" y="130" width="180" height="280" as="geometry" />
        </mxCell>
        <mxCell id="BN0zJVYFSK5SitSiGwVD-2" value="" style="shape=tableRow;horizontal=0;startSize=0;swimlaneHead=0;swimlaneBody=0;fillColor=none;collapsible=0;dropTarget=0;points=[[0,0.5],[1,0.5]];portConstraint=eastwest;top=0;left=0;right=0;bottom=1;" parent="BN0zJVYFSK5SitSiGwVD-1" vertex="1">
          <mxGeometry y="30" width="180" height="30" as="geometry" />
        </mxCell>
        <mxCell id="BN0zJVYFSK5SitSiGwVD-3" value="PK" style="shape=partialRectangle;connectable=0;fillColor=none;top=0;left=0;bottom=0;right=0;fontStyle=1;overflow=hidden;whiteSpace=wrap;html=1;" parent="BN0zJVYFSK5SitSiGwVD-2" vertex="1">
          <mxGeometry width="29" height="30" as="geometry">
            <mxRectangle width="29" height="30" as="alternateBounds" />
          </mxGeometry>
        </mxCell>
        <mxCell id="BN0zJVYFSK5SitSiGwVD-4" value="route_id varchar" style="shape=partialRectangle;connectable=0;fillColor=none;top=0;left=0;bottom=0;right=0;align=left;spacingLeft=6;fontStyle=5;overflow=hidden;whiteSpace=wrap;html=1;" parent="BN0zJVYFSK5SitSiGwVD-2" vertex="1">
          <mxGeometry x="29" width="151" height="30" as="geometry">
            <mxRectangle width="151" height="30" as="alternateBounds" />
          </mxGeometry>
        </mxCell>
        <mxCell id="BN0zJVYFSK5SitSiGwVD-5" value="" style="shape=tableRow;horizontal=0;startSize=0;swimlaneHead=0;swimlaneBody=0;fillColor=none;collapsible=0;dropTarget=0;points=[[0,0.5],[1,0.5]];portConstraint=eastwest;top=0;left=0;right=0;bottom=0;" parent="BN0zJVYFSK5SitSiGwVD-1" vertex="1">
          <mxGeometry y="60" width="180" height="30" as="geometry" />
        </mxCell>
        <mxCell id="BN0zJVYFSK5SitSiGwVD-6" value="" style="shape=partialRectangle;connectable=0;fillColor=none;top=0;left=0;bottom=0;right=0;editable=1;overflow=hidden;whiteSpace=wrap;html=1;" parent="BN0zJVYFSK5SitSiGwVD-5" vertex="1">
          <mxGeometry width="29" height="30" as="geometry">
            <mxRectangle width="29" height="30" as="alternateBounds" />
          </mxGeometry>
        </mxCell>
        <mxCell id="BN0zJVYFSK5SitSiGwVD-7" value="agency_id varchar" style="shape=partialRectangle;connectable=0;fillColor=none;top=0;left=0;bottom=0;right=0;align=left;spacingLeft=6;overflow=hidden;whiteSpace=wrap;html=1;" parent="BN0zJVYFSK5SitSiGwVD-5" vertex="1">
          <mxGeometry x="29" width="151" height="30" as="geometry">
            <mxRectangle width="151" height="30" as="alternateBounds" />
          </mxGeometry>
        </mxCell>
        <mxCell id="BN0zJVYFSK5SitSiGwVD-8" value="" style="shape=tableRow;horizontal=0;startSize=0;swimlaneHead=0;swimlaneBody=0;fillColor=none;collapsible=0;dropTarget=0;points=[[0,0.5],[1,0.5]];portConstraint=eastwest;top=0;left=0;right=0;bottom=0;" parent="BN0zJVYFSK5SitSiGwVD-1" vertex="1">
          <mxGeometry y="90" width="180" height="130" as="geometry" />
        </mxCell>
        <mxCell id="BN0zJVYFSK5SitSiGwVD-9" value="" style="shape=partialRectangle;connectable=0;fillColor=none;top=0;left=0;bottom=0;right=0;editable=1;overflow=hidden;whiteSpace=wrap;html=1;" parent="BN0zJVYFSK5SitSiGwVD-8" vertex="1">
          <mxGeometry width="29" height="130" as="geometry">
            <mxRectangle width="29" height="130" as="alternateBounds" />
          </mxGeometry>
        </mxCell>
        <mxCell id="BN0zJVYFSK5SitSiGwVD-10" value="route_shortname text&lt;br&gt;&lt;br&gt;route_longname text&lt;br&gt;&lt;br&gt;route_type Enum&lt;br&gt;&lt;br&gt;route_url varchar" style="shape=partialRectangle;connectable=0;fillColor=none;top=0;left=0;bottom=0;right=0;align=left;spacingLeft=6;overflow=hidden;whiteSpace=wrap;html=1;" parent="BN0zJVYFSK5SitSiGwVD-8" vertex="1">
          <mxGeometry x="29" width="151" height="130" as="geometry">
            <mxRectangle width="151" height="130" as="alternateBounds" />
          </mxGeometry>
        </mxCell>
        <mxCell id="BN0zJVYFSK5SitSiGwVD-11" value="" style="shape=tableRow;horizontal=0;startSize=0;swimlaneHead=0;swimlaneBody=0;fillColor=none;collapsible=0;dropTarget=0;points=[[0,0.5],[1,0.5]];portConstraint=eastwest;top=0;left=0;right=0;bottom=0;" parent="BN0zJVYFSK5SitSiGwVD-1" vertex="1">
          <mxGeometry y="220" width="180" height="60" as="geometry" />
        </mxCell>
        <mxCell id="BN0zJVYFSK5SitSiGwVD-12" value="" style="shape=partialRectangle;connectable=0;fillColor=none;top=0;left=0;bottom=0;right=0;editable=1;overflow=hidden;whiteSpace=wrap;html=1;" parent="BN0zJVYFSK5SitSiGwVD-11" vertex="1">
          <mxGeometry width="29" height="60" as="geometry">
            <mxRectangle width="29" height="60" as="alternateBounds" />
          </mxGeometry>
        </mxCell>
        <mxCell id="BN0zJVYFSK5SitSiGwVD-13" value="route_color varchar&lt;br&gt;&lt;br&gt;route_textcolor varchar" style="shape=partialRectangle;connectable=0;fillColor=none;top=0;left=0;bottom=0;right=0;align=left;spacingLeft=6;overflow=hidden;whiteSpace=wrap;html=1;" parent="BN0zJVYFSK5SitSiGwVD-11" vertex="1">
          <mxGeometry x="29" width="151" height="60" as="geometry">
            <mxRectangle width="151" height="60" as="alternateBounds" />
          </mxGeometry>
        </mxCell>
        <mxCell id="BN0zJVYFSK5SitSiGwVD-27" value="trip" style="shape=table;startSize=30;container=1;collapsible=1;childLayout=tableLayout;fixedRows=1;rowLines=0;fontStyle=1;align=center;resizeLast=1;html=1;whiteSpace=wrap;" parent="1" vertex="1">
          <mxGeometry x="490" y="140" width="200" height="230" as="geometry" />
        </mxCell>
        <mxCell id="BN0zJVYFSK5SitSiGwVD-28" value="" style="shape=tableRow;horizontal=0;startSize=0;swimlaneHead=0;swimlaneBody=0;fillColor=none;collapsible=0;dropTarget=0;points=[[0,0.5],[1,0.5]];portConstraint=eastwest;top=0;left=0;right=0;bottom=0;html=1;" parent="BN0zJVYFSK5SitSiGwVD-27" vertex="1">
          <mxGeometry y="30" width="200" height="30" as="geometry" />
        </mxCell>
        <mxCell id="BN0zJVYFSK5SitSiGwVD-29" value="PK" style="shape=partialRectangle;connectable=0;fillColor=none;top=0;left=0;bottom=0;right=0;fontStyle=1;overflow=hidden;html=1;whiteSpace=wrap;" parent="BN0zJVYFSK5SitSiGwVD-28" vertex="1">
          <mxGeometry width="60" height="30" as="geometry">
            <mxRectangle width="60" height="30" as="alternateBounds" />
          </mxGeometry>
        </mxCell>
        <mxCell id="BN0zJVYFSK5SitSiGwVD-30" value="trip_id varchar" style="shape=partialRectangle;connectable=0;fillColor=none;top=0;left=0;bottom=0;right=0;align=left;spacingLeft=6;fontStyle=5;overflow=hidden;html=1;whiteSpace=wrap;" parent="BN0zJVYFSK5SitSiGwVD-28" vertex="1">
          <mxGeometry x="60" width="140" height="30" as="geometry">
            <mxRectangle width="140" height="30" as="alternateBounds" />
          </mxGeometry>
        </mxCell>
        <mxCell id="BN0zJVYFSK5SitSiGwVD-31" value="" style="shape=tableRow;horizontal=0;startSize=0;swimlaneHead=0;swimlaneBody=0;fillColor=none;collapsible=0;dropTarget=0;points=[[0,0.5],[1,0.5]];portConstraint=eastwest;top=0;left=0;right=0;bottom=1;html=1;" parent="BN0zJVYFSK5SitSiGwVD-27" vertex="1">
          <mxGeometry y="60" width="200" height="30" as="geometry" />
        </mxCell>
        <mxCell id="BN0zJVYFSK5SitSiGwVD-32" value="FK" style="shape=partialRectangle;connectable=0;fillColor=none;top=0;left=0;bottom=0;right=0;fontStyle=1;overflow=hidden;html=1;whiteSpace=wrap;" parent="BN0zJVYFSK5SitSiGwVD-31" vertex="1">
          <mxGeometry width="60" height="30" as="geometry">
            <mxRectangle width="60" height="30" as="alternateBounds" />
          </mxGeometry>
        </mxCell>
        <mxCell id="BN0zJVYFSK5SitSiGwVD-33" value="route_id varchar" style="shape=partialRectangle;connectable=0;fillColor=none;top=0;left=0;bottom=0;right=0;align=left;spacingLeft=6;fontStyle=5;overflow=hidden;html=1;whiteSpace=wrap;" parent="BN0zJVYFSK5SitSiGwVD-31" vertex="1">
          <mxGeometry x="60" width="140" height="30" as="geometry">
            <mxRectangle width="140" height="30" as="alternateBounds" />
          </mxGeometry>
        </mxCell>
        <mxCell id="BN0zJVYFSK5SitSiGwVD-34" value="" style="shape=tableRow;horizontal=0;startSize=0;swimlaneHead=0;swimlaneBody=0;fillColor=none;collapsible=0;dropTarget=0;points=[[0,0.5],[1,0.5]];portConstraint=eastwest;top=0;left=0;right=0;bottom=0;html=1;" parent="BN0zJVYFSK5SitSiGwVD-27" vertex="1">
          <mxGeometry y="90" width="200" height="30" as="geometry" />
        </mxCell>
        <mxCell id="BN0zJVYFSK5SitSiGwVD-35" value="" style="shape=partialRectangle;connectable=0;fillColor=none;top=0;left=0;bottom=0;right=0;editable=1;overflow=hidden;html=1;whiteSpace=wrap;" parent="BN0zJVYFSK5SitSiGwVD-34" vertex="1">
          <mxGeometry width="60" height="30" as="geometry">
            <mxRectangle width="60" height="30" as="alternateBounds" />
          </mxGeometry>
        </mxCell>
        <mxCell id="BN0zJVYFSK5SitSiGwVD-36" value="service_id int" style="shape=partialRectangle;connectable=0;fillColor=none;top=0;left=0;bottom=0;right=0;align=left;spacingLeft=6;overflow=hidden;html=1;whiteSpace=wrap;" parent="BN0zJVYFSK5SitSiGwVD-34" vertex="1">
          <mxGeometry x="60" width="140" height="30" as="geometry">
            <mxRectangle width="140" height="30" as="alternateBounds" />
          </mxGeometry>
        </mxCell>
        <mxCell id="BN0zJVYFSK5SitSiGwVD-37" value="" style="shape=tableRow;horizontal=0;startSize=0;swimlaneHead=0;swimlaneBody=0;fillColor=none;collapsible=0;dropTarget=0;points=[[0,0.5],[1,0.5]];portConstraint=eastwest;top=0;left=0;right=0;bottom=0;html=1;" parent="BN0zJVYFSK5SitSiGwVD-27" vertex="1">
          <mxGeometry y="120" width="200" height="110" as="geometry" />
        </mxCell>
        <mxCell id="BN0zJVYFSK5SitSiGwVD-38" value="" style="shape=partialRectangle;connectable=0;fillColor=none;top=0;left=0;bottom=0;right=0;editable=1;overflow=hidden;html=1;whiteSpace=wrap;" parent="BN0zJVYFSK5SitSiGwVD-37" vertex="1">
          <mxGeometry width="60" height="110" as="geometry">
            <mxRectangle width="60" height="110" as="alternateBounds" />
          </mxGeometry>
        </mxCell>
        <mxCell id="BN0zJVYFSK5SitSiGwVD-39" value="trip_headsign varchar&lt;br&gt;&lt;br&gt;direction_id int&lt;br&gt;&lt;br&gt;block_id enum&lt;br&gt;&lt;br&gt;shape_id int" style="shape=partialRectangle;connectable=0;fillColor=none;top=0;left=0;bottom=0;right=0;align=left;spacingLeft=6;overflow=hidden;html=1;whiteSpace=wrap;" parent="BN0zJVYFSK5SitSiGwVD-37" vertex="1">
          <mxGeometry x="60" width="140" height="110" as="geometry">
            <mxRectangle width="140" height="110" as="alternateBounds" />
          </mxGeometry>
        </mxCell>
        <mxCell id="BN0zJVYFSK5SitSiGwVD-54" value="stop_times" style="shape=table;startSize=30;container=1;collapsible=1;childLayout=tableLayout;fixedRows=1;rowLines=0;fontStyle=1;align=center;resizeLast=1;html=1;whiteSpace=wrap;" parent="1" vertex="1">
          <mxGeometry x="510" y="475" width="210" height="295" as="geometry" />
        </mxCell>
        <mxCell id="BN0zJVYFSK5SitSiGwVD-55" value="" style="shape=tableRow;horizontal=0;startSize=0;swimlaneHead=0;swimlaneBody=0;fillColor=none;collapsible=0;dropTarget=0;points=[[0,0.5],[1,0.5]];portConstraint=eastwest;top=0;left=0;right=0;bottom=0;html=1;" parent="BN0zJVYFSK5SitSiGwVD-54" vertex="1">
          <mxGeometry y="30" width="210" height="30" as="geometry" />
        </mxCell>
        <mxCell id="BN0zJVYFSK5SitSiGwVD-56" value="FK1" style="shape=partialRectangle;connectable=0;fillColor=none;top=0;left=0;bottom=0;right=0;fontStyle=1;overflow=hidden;html=1;whiteSpace=wrap;" parent="BN0zJVYFSK5SitSiGwVD-55" vertex="1">
          <mxGeometry width="60" height="30" as="geometry">
            <mxRectangle width="60" height="30" as="alternateBounds" />
          </mxGeometry>
        </mxCell>
        <mxCell id="BN0zJVYFSK5SitSiGwVD-57" value="trip_id varchar" style="shape=partialRectangle;connectable=0;fillColor=none;top=0;left=0;bottom=0;right=0;align=left;spacingLeft=6;fontStyle=5;overflow=hidden;html=1;whiteSpace=wrap;" parent="BN0zJVYFSK5SitSiGwVD-55" vertex="1">
          <mxGeometry x="60" width="150" height="30" as="geometry">
            <mxRectangle width="150" height="30" as="alternateBounds" />
          </mxGeometry>
        </mxCell>
        <mxCell id="BN0zJVYFSK5SitSiGwVD-58" value="" style="shape=tableRow;horizontal=0;startSize=0;swimlaneHead=0;swimlaneBody=0;fillColor=none;collapsible=0;dropTarget=0;points=[[0,0.5],[1,0.5]];portConstraint=eastwest;top=0;left=0;right=0;bottom=1;html=1;" parent="BN0zJVYFSK5SitSiGwVD-54" vertex="1">
          <mxGeometry y="60" width="210" height="30" as="geometry" />
        </mxCell>
        <mxCell id="BN0zJVYFSK5SitSiGwVD-59" value="FK2" style="shape=partialRectangle;connectable=0;fillColor=none;top=0;left=0;bottom=0;right=0;fontStyle=1;overflow=hidden;html=1;whiteSpace=wrap;" parent="BN0zJVYFSK5SitSiGwVD-58" vertex="1">
          <mxGeometry width="60" height="30" as="geometry">
            <mxRectangle width="60" height="30" as="alternateBounds" />
          </mxGeometry>
        </mxCell>
        <mxCell id="BN0zJVYFSK5SitSiGwVD-60" value="stop_id varchar" style="shape=partialRectangle;connectable=0;fillColor=none;top=0;left=0;bottom=0;right=0;align=left;spacingLeft=6;fontStyle=5;overflow=hidden;html=1;whiteSpace=wrap;" parent="BN0zJVYFSK5SitSiGwVD-58" vertex="1">
          <mxGeometry x="60" width="150" height="30" as="geometry">
            <mxRectangle width="150" height="30" as="alternateBounds" />
          </mxGeometry>
        </mxCell>
        <mxCell id="BN0zJVYFSK5SitSiGwVD-61" value="" style="shape=tableRow;horizontal=0;startSize=0;swimlaneHead=0;swimlaneBody=0;fillColor=none;collapsible=0;dropTarget=0;points=[[0,0.5],[1,0.5]];portConstraint=eastwest;top=0;left=0;right=0;bottom=0;html=1;" parent="BN0zJVYFSK5SitSiGwVD-54" vertex="1">
          <mxGeometry y="90" width="210" height="30" as="geometry" />
        </mxCell>
        <mxCell id="BN0zJVYFSK5SitSiGwVD-62" value="" style="shape=partialRectangle;connectable=0;fillColor=none;top=0;left=0;bottom=0;right=0;editable=1;overflow=hidden;html=1;whiteSpace=wrap;" parent="BN0zJVYFSK5SitSiGwVD-61" vertex="1">
          <mxGeometry width="60" height="30" as="geometry">
            <mxRectangle width="60" height="30" as="alternateBounds" />
          </mxGeometry>
        </mxCell>
        <mxCell id="BN0zJVYFSK5SitSiGwVD-63" value="arrival_time time" style="shape=partialRectangle;connectable=0;fillColor=none;top=0;left=0;bottom=0;right=0;align=left;spacingLeft=6;overflow=hidden;html=1;whiteSpace=wrap;" parent="BN0zJVYFSK5SitSiGwVD-61" vertex="1">
          <mxGeometry x="60" width="150" height="30" as="geometry">
            <mxRectangle width="150" height="30" as="alternateBounds" />
          </mxGeometry>
        </mxCell>
        <mxCell id="BN0zJVYFSK5SitSiGwVD-64" value="" style="shape=tableRow;horizontal=0;startSize=0;swimlaneHead=0;swimlaneBody=0;fillColor=none;collapsible=0;dropTarget=0;points=[[0,0.5],[1,0.5]];portConstraint=eastwest;top=0;left=0;right=0;bottom=0;html=1;" parent="BN0zJVYFSK5SitSiGwVD-54" vertex="1">
          <mxGeometry y="120" width="210" height="175" as="geometry" />
        </mxCell>
        <mxCell id="BN0zJVYFSK5SitSiGwVD-65" value="" style="shape=partialRectangle;connectable=0;fillColor=none;top=0;left=0;bottom=0;right=0;editable=1;overflow=hidden;html=1;whiteSpace=wrap;" parent="BN0zJVYFSK5SitSiGwVD-64" vertex="1">
          <mxGeometry width="60" height="175" as="geometry">
            <mxRectangle width="60" height="175" as="alternateBounds" />
          </mxGeometry>
        </mxCell>
        <mxCell id="BN0zJVYFSK5SitSiGwVD-66" value="departure_time time&lt;br&gt;&lt;br&gt;stop_sequence int&lt;br&gt;&lt;br&gt;stop_headsign text&lt;br&gt;&lt;br&gt;pickup_type enum&lt;br&gt;&lt;br&gt;dropoff_type enum&lt;br&gt;&lt;br&gt;shape_dist_travelled float" style="shape=partialRectangle;connectable=0;fillColor=none;top=0;left=0;bottom=0;right=0;align=left;spacingLeft=6;overflow=hidden;html=1;whiteSpace=wrap;" parent="BN0zJVYFSK5SitSiGwVD-64" vertex="1">
          <mxGeometry x="60" width="150" height="175" as="geometry">
            <mxRectangle width="150" height="175" as="alternateBounds" />
          </mxGeometry>
        </mxCell>
        <mxCell id="BN0zJVYFSK5SitSiGwVD-67" value="transfers" style="shape=table;startSize=30;container=1;collapsible=1;childLayout=tableLayout;fixedRows=1;rowLines=0;fontStyle=1;align=center;resizeLast=1;html=1;whiteSpace=wrap;" parent="1" vertex="1">
          <mxGeometry x="10" y="527.5" width="220" height="190" as="geometry" />
        </mxCell>
        <mxCell id="BN0zJVYFSK5SitSiGwVD-68" value="" style="shape=tableRow;horizontal=0;startSize=0;swimlaneHead=0;swimlaneBody=0;fillColor=none;collapsible=0;dropTarget=0;points=[[0,0.5],[1,0.5]];portConstraint=eastwest;top=0;left=0;right=0;bottom=0;html=1;" parent="BN0zJVYFSK5SitSiGwVD-67" vertex="1">
          <mxGeometry y="30" width="220" height="30" as="geometry" />
        </mxCell>
        <mxCell id="BN0zJVYFSK5SitSiGwVD-69" value="FK" style="shape=partialRectangle;connectable=0;fillColor=none;top=0;left=0;bottom=0;right=0;fontStyle=1;overflow=hidden;html=1;whiteSpace=wrap;" parent="BN0zJVYFSK5SitSiGwVD-68" vertex="1">
          <mxGeometry width="60" height="30" as="geometry">
            <mxRectangle width="60" height="30" as="alternateBounds" />
          </mxGeometry>
        </mxCell>
        <mxCell id="BN0zJVYFSK5SitSiGwVD-70" value="from_stop_id varchar" style="shape=partialRectangle;connectable=0;fillColor=none;top=0;left=0;bottom=0;right=0;align=left;spacingLeft=6;fontStyle=5;overflow=hidden;html=1;whiteSpace=wrap;" parent="BN0zJVYFSK5SitSiGwVD-68" vertex="1">
          <mxGeometry x="60" width="160" height="30" as="geometry">
            <mxRectangle width="160" height="30" as="alternateBounds" />
          </mxGeometry>
        </mxCell>
        <mxCell id="BN0zJVYFSK5SitSiGwVD-71" value="" style="shape=tableRow;horizontal=0;startSize=0;swimlaneHead=0;swimlaneBody=0;fillColor=none;collapsible=0;dropTarget=0;points=[[0,0.5],[1,0.5]];portConstraint=eastwest;top=0;left=0;right=0;bottom=1;html=1;" parent="BN0zJVYFSK5SitSiGwVD-67" vertex="1">
          <mxGeometry y="60" width="220" height="80" as="geometry" />
        </mxCell>
        <mxCell id="BN0zJVYFSK5SitSiGwVD-72" value="FK2&lt;br&gt;&lt;br&gt;FK3&lt;br&gt;&lt;br&gt;FK4" style="shape=partialRectangle;connectable=0;fillColor=none;top=0;left=0;bottom=0;right=0;fontStyle=1;overflow=hidden;html=1;whiteSpace=wrap;" parent="BN0zJVYFSK5SitSiGwVD-71" vertex="1">
          <mxGeometry width="60" height="80" as="geometry">
            <mxRectangle width="60" height="80" as="alternateBounds" />
          </mxGeometry>
        </mxCell>
        <mxCell id="BN0zJVYFSK5SitSiGwVD-73" value="to_stop_id varchar&lt;br&gt;&lt;br&gt;to_route_id varchar&lt;br&gt;&lt;br&gt;from_route_id varchar" style="shape=partialRectangle;connectable=0;fillColor=none;top=0;left=0;bottom=0;right=0;align=left;spacingLeft=6;fontStyle=5;overflow=hidden;html=1;whiteSpace=wrap;" parent="BN0zJVYFSK5SitSiGwVD-71" vertex="1">
          <mxGeometry x="60" width="160" height="80" as="geometry">
            <mxRectangle width="160" height="80" as="alternateBounds" />
          </mxGeometry>
        </mxCell>
        <mxCell id="BN0zJVYFSK5SitSiGwVD-74" value="" style="shape=tableRow;horizontal=0;startSize=0;swimlaneHead=0;swimlaneBody=0;fillColor=none;collapsible=0;dropTarget=0;points=[[0,0.5],[1,0.5]];portConstraint=eastwest;top=0;left=0;right=0;bottom=0;html=1;" parent="BN0zJVYFSK5SitSiGwVD-67" vertex="1">
          <mxGeometry y="140" width="220" height="20" as="geometry" />
        </mxCell>
        <mxCell id="BN0zJVYFSK5SitSiGwVD-75" value="" style="shape=partialRectangle;connectable=0;fillColor=none;top=0;left=0;bottom=0;right=0;editable=1;overflow=hidden;html=1;whiteSpace=wrap;" parent="BN0zJVYFSK5SitSiGwVD-74" vertex="1">
          <mxGeometry width="60" height="20" as="geometry">
            <mxRectangle width="60" height="20" as="alternateBounds" />
          </mxGeometry>
        </mxCell>
        <mxCell id="BN0zJVYFSK5SitSiGwVD-76" value="transfer_type enum" style="shape=partialRectangle;connectable=0;fillColor=none;top=0;left=0;bottom=0;right=0;align=left;spacingLeft=6;overflow=hidden;html=1;whiteSpace=wrap;" parent="BN0zJVYFSK5SitSiGwVD-74" vertex="1">
          <mxGeometry x="60" width="160" height="20" as="geometry">
            <mxRectangle width="160" height="20" as="alternateBounds" />
          </mxGeometry>
        </mxCell>
        <mxCell id="BN0zJVYFSK5SitSiGwVD-77" value="" style="shape=tableRow;horizontal=0;startSize=0;swimlaneHead=0;swimlaneBody=0;fillColor=none;collapsible=0;dropTarget=0;points=[[0,0.5],[1,0.5]];portConstraint=eastwest;top=0;left=0;right=0;bottom=0;html=1;" parent="BN0zJVYFSK5SitSiGwVD-67" vertex="1">
          <mxGeometry y="160" width="220" height="30" as="geometry" />
        </mxCell>
        <mxCell id="BN0zJVYFSK5SitSiGwVD-78" value="" style="shape=partialRectangle;connectable=0;fillColor=none;top=0;left=0;bottom=0;right=0;editable=1;overflow=hidden;html=1;whiteSpace=wrap;" parent="BN0zJVYFSK5SitSiGwVD-77" vertex="1">
          <mxGeometry width="60" height="30" as="geometry">
            <mxRectangle width="60" height="30" as="alternateBounds" />
          </mxGeometry>
        </mxCell>
        <mxCell id="BN0zJVYFSK5SitSiGwVD-79" value="min_transfer_time int" style="shape=partialRectangle;connectable=0;fillColor=none;top=0;left=0;bottom=0;right=0;align=left;spacingLeft=6;overflow=hidden;html=1;whiteSpace=wrap;" parent="BN0zJVYFSK5SitSiGwVD-77" vertex="1">
          <mxGeometry x="60" width="160" height="30" as="geometry">
            <mxRectangle width="160" height="30" as="alternateBounds" />
          </mxGeometry>
        </mxCell>
        <mxCell id="BN0zJVYFSK5SitSiGwVD-82" value="" style="edgeStyle=entityRelationEdgeStyle;fontSize=12;html=1;endArrow=ERoneToMany;startArrow=ERmandOne;rounded=0;entryX=0;entryY=0.5;entryDx=0;entryDy=0;exitX=1.002;exitY=0.286;exitDx=0;exitDy=0;exitPerimeter=0;" parent="1" source="BN0zJVYFSK5SitSiGwVD-51" target="BN0zJVYFSK5SitSiGwVD-58" edge="1">
          <mxGeometry width="100" height="100" relative="1" as="geometry">
            <mxPoint x="300" y="655" as="sourcePoint" />
            <mxPoint x="400" y="555" as="targetPoint" />
          </mxGeometry>
        </mxCell>
        <mxCell id="BN0zJVYFSK5SitSiGwVD-83" value="" style="edgeStyle=entityRelationEdgeStyle;fontSize=12;html=1;endArrow=ERoneToMany;startArrow=ERmandOne;rounded=0;exitX=1.014;exitY=0.158;exitDx=0;exitDy=0;exitPerimeter=0;" parent="1" source="BN0zJVYFSK5SitSiGwVD-37" target="BN0zJVYFSK5SitSiGwVD-64" edge="1">
          <mxGeometry width="100" height="100" relative="1" as="geometry">
            <mxPoint x="370" y="550" as="sourcePoint" />
            <mxPoint x="470" y="450" as="targetPoint" />
            <Array as="points">
              <mxPoint x="410" y="440" />
            </Array>
          </mxGeometry>
        </mxCell>
        <mxCell id="BN0zJVYFSK5SitSiGwVD-152" value="" style="endArrow=none;html=1;rounded=0;exitX=0.5;exitY=0;exitDx=0;exitDy=0;entryX=0.592;entryY=1.042;entryDx=0;entryDy=0;entryPerimeter=0;" parent="1" source="BN0zJVYFSK5SitSiGwVD-99" target="BN0zJVYFSK5SitSiGwVD-148" edge="1">
          <mxGeometry relative="1" as="geometry">
            <mxPoint x="265" y="1500" as="sourcePoint" />
            <mxPoint x="350" y="1310" as="targetPoint" />
          </mxGeometry>
        </mxCell>
        <mxCell id="BN0zJVYFSK5SitSiGwVD-153" value="" style="endArrow=none;html=1;rounded=0;entryX=0.5;entryY=0;entryDx=0;entryDy=0;exitX=0.39;exitY=1.01;exitDx=0;exitDy=0;exitPerimeter=0;" parent="1" source="BN0zJVYFSK5SitSiGwVD-109" target="BN0zJVYFSK5SitSiGwVD-112" edge="1">
          <mxGeometry relative="1" as="geometry">
            <mxPoint x="275" y="1510" as="sourcePoint" />
            <mxPoint x="435" y="1510" as="targetPoint" />
          </mxGeometry>
        </mxCell>
        <mxCell id="BN0zJVYFSK5SitSiGwVD-155" value="" style="endArrow=none;html=1;rounded=0;exitX=0.5;exitY=0;exitDx=0;exitDy=0;entryX=0;entryY=0.5;entryDx=0;entryDy=0;" parent="1" source="BN0zJVYFSK5SitSiGwVD-99" target="BN0zJVYFSK5SitSiGwVD-132" edge="1">
          <mxGeometry relative="1" as="geometry">
            <mxPoint x="440" y="1510" as="sourcePoint" />
            <mxPoint x="630" y="1320" as="targetPoint" />
          </mxGeometry>
        </mxCell>
        <mxCell id="BN0zJVYFSK5SitSiGwVD-84" value="" style="edgeStyle=entityRelationEdgeStyle;fontSize=12;html=1;endArrow=ERoneToMany;startArrow=ERmandOne;rounded=0;exitX=1;exitY=0.5;exitDx=0;exitDy=0;entryX=0.01;entryY=0.645;entryDx=0;entryDy=0;entryPerimeter=0;" parent="1" source="BN0zJVYFSK5SitSiGwVD-8" target="BN0zJVYFSK5SitSiGwVD-37" edge="1">
          <mxGeometry width="100" height="100" relative="1" as="geometry">
            <mxPoint x="370" y="430" as="sourcePoint" />
            <mxPoint x="470" y="330" as="targetPoint" />
          </mxGeometry>
        </mxCell>
        <mxCell id="BN0zJVYFSK5SitSiGwVD-158" value="" style="edgeStyle=entityRelationEdgeStyle;fontSize=12;html=1;endArrow=ERzeroToMany;startArrow=ERmandOne;rounded=0;exitX=-0.013;exitY=0.967;exitDx=0;exitDy=0;exitPerimeter=0;" parent="1" source="BN0zJVYFSK5SitSiGwVD-48" target="BN0zJVYFSK5SitSiGwVD-74" edge="1">
          <mxGeometry width="100" height="100" relative="1" as="geometry">
            <mxPoint x="340" y="680" as="sourcePoint" />
            <mxPoint x="380" y="670" as="targetPoint" />
          </mxGeometry>
        </mxCell>
        <mxCell id="BN0zJVYFSK5SitSiGwVD-99" value="fct_stop_times_transfer" style="shape=table;startSize=30;container=1;collapsible=1;childLayout=tableLayout;fixedRows=1;rowLines=0;fontStyle=1;align=center;resizeLast=1;html=1;whiteSpace=wrap;" parent="1" vertex="1">
          <mxGeometry x="270" y="1370" width="210" height="520" as="geometry" />
        </mxCell>
        <mxCell id="BN0zJVYFSK5SitSiGwVD-100" value="" style="shape=tableRow;horizontal=0;startSize=0;swimlaneHead=0;swimlaneBody=0;fillColor=none;collapsible=0;dropTarget=0;points=[[0,0.5],[1,0.5]];portConstraint=eastwest;top=0;left=0;right=0;bottom=0;html=1;" parent="BN0zJVYFSK5SitSiGwVD-99" vertex="1">
          <mxGeometry y="30" width="210" height="30" as="geometry" />
        </mxCell>
        <mxCell id="BN0zJVYFSK5SitSiGwVD-101" value="FK1" style="shape=partialRectangle;connectable=0;fillColor=none;top=0;left=0;bottom=0;right=0;fontStyle=1;overflow=hidden;html=1;whiteSpace=wrap;" parent="BN0zJVYFSK5SitSiGwVD-100" vertex="1">
          <mxGeometry width="60" height="30" as="geometry">
            <mxRectangle width="60" height="30" as="alternateBounds" />
          </mxGeometry>
        </mxCell>
        <mxCell id="BN0zJVYFSK5SitSiGwVD-102" value="trip_id varchar" style="shape=partialRectangle;connectable=0;fillColor=none;top=0;left=0;bottom=0;right=0;align=left;spacingLeft=6;fontStyle=5;overflow=hidden;html=1;whiteSpace=wrap;" parent="BN0zJVYFSK5SitSiGwVD-100" vertex="1">
          <mxGeometry x="60" width="150" height="30" as="geometry">
            <mxRectangle width="150" height="30" as="alternateBounds" />
          </mxGeometry>
        </mxCell>
        <mxCell id="BN0zJVYFSK5SitSiGwVD-103" value="" style="shape=tableRow;horizontal=0;startSize=0;swimlaneHead=0;swimlaneBody=0;fillColor=none;collapsible=0;dropTarget=0;points=[[0,0.5],[1,0.5]];portConstraint=eastwest;top=0;left=0;right=0;bottom=1;html=1;" parent="BN0zJVYFSK5SitSiGwVD-99" vertex="1">
          <mxGeometry y="60" width="210" height="180" as="geometry" />
        </mxCell>
        <mxCell id="BN0zJVYFSK5SitSiGwVD-104" value="FK2&lt;br&gt;&lt;br&gt;FK3&lt;br&gt;&lt;br&gt;FK4&lt;br&gt;&lt;br&gt;FK7&lt;br&gt;&lt;br&gt;FK6&lt;br&gt;&lt;br&gt;FK7" style="shape=partialRectangle;connectable=0;fillColor=none;top=0;left=0;bottom=0;right=0;fontStyle=1;overflow=hidden;html=1;whiteSpace=wrap;" parent="BN0zJVYFSK5SitSiGwVD-103" vertex="1">
          <mxGeometry width="60" height="180" as="geometry">
            <mxRectangle width="60" height="180" as="alternateBounds" />
          </mxGeometry>
        </mxCell>
        <mxCell id="BN0zJVYFSK5SitSiGwVD-105" value="stop_id varchar&lt;br&gt;&lt;br&gt;to_route_id varchar&lt;br&gt;&lt;br&gt;from_route_id varchar&lt;br&gt;&lt;br&gt;route_id varchar&lt;br&gt;&lt;br&gt;to_stop_id varchar&lt;br&gt;&lt;br&gt;from_stop_id varchar" style="shape=partialRectangle;connectable=0;fillColor=none;top=0;left=0;bottom=0;right=0;align=left;spacingLeft=6;fontStyle=5;overflow=hidden;html=1;whiteSpace=wrap;" parent="BN0zJVYFSK5SitSiGwVD-103" vertex="1">
          <mxGeometry x="60" width="150" height="180" as="geometry">
            <mxRectangle width="150" height="180" as="alternateBounds" />
          </mxGeometry>
        </mxCell>
        <mxCell id="BN0zJVYFSK5SitSiGwVD-106" value="" style="shape=tableRow;horizontal=0;startSize=0;swimlaneHead=0;swimlaneBody=0;fillColor=none;collapsible=0;dropTarget=0;points=[[0,0.5],[1,0.5]];portConstraint=eastwest;top=0;left=0;right=0;bottom=0;html=1;" parent="BN0zJVYFSK5SitSiGwVD-99" vertex="1">
          <mxGeometry y="240" width="210" height="30" as="geometry" />
        </mxCell>
        <mxCell id="BN0zJVYFSK5SitSiGwVD-107" value="" style="shape=partialRectangle;connectable=0;fillColor=none;top=0;left=0;bottom=0;right=0;editable=1;overflow=hidden;html=1;whiteSpace=wrap;" parent="BN0zJVYFSK5SitSiGwVD-106" vertex="1">
          <mxGeometry width="60" height="30" as="geometry">
            <mxRectangle width="60" height="30" as="alternateBounds" />
          </mxGeometry>
        </mxCell>
        <mxCell id="BN0zJVYFSK5SitSiGwVD-108" value="arrival_time time" style="shape=partialRectangle;connectable=0;fillColor=none;top=0;left=0;bottom=0;right=0;align=left;spacingLeft=6;overflow=hidden;html=1;whiteSpace=wrap;" parent="BN0zJVYFSK5SitSiGwVD-106" vertex="1">
          <mxGeometry x="60" width="150" height="30" as="geometry">
            <mxRectangle width="150" height="30" as="alternateBounds" />
          </mxGeometry>
        </mxCell>
        <mxCell id="BN0zJVYFSK5SitSiGwVD-109" value="" style="shape=tableRow;horizontal=0;startSize=0;swimlaneHead=0;swimlaneBody=0;fillColor=none;collapsible=0;dropTarget=0;points=[[0,0.5],[1,0.5]];portConstraint=eastwest;top=0;left=0;right=0;bottom=0;html=1;" parent="BN0zJVYFSK5SitSiGwVD-99" vertex="1">
          <mxGeometry y="270" width="210" height="250" as="geometry" />
        </mxCell>
        <mxCell id="BN0zJVYFSK5SitSiGwVD-110" value="" style="shape=partialRectangle;connectable=0;fillColor=none;top=0;left=0;bottom=0;right=0;editable=1;overflow=hidden;html=1;whiteSpace=wrap;" parent="BN0zJVYFSK5SitSiGwVD-109" vertex="1">
          <mxGeometry width="60" height="250" as="geometry">
            <mxRectangle width="60" height="250" as="alternateBounds" />
          </mxGeometry>
        </mxCell>
        <mxCell id="BN0zJVYFSK5SitSiGwVD-111" value="Date date&lt;br&gt;&lt;br&gt;departure_time time&lt;br&gt;&lt;br&gt;stop_sequence int&lt;br&gt;&lt;br&gt;stop_headsign varchar&lt;br&gt;&lt;br&gt;&amp;nbsp;pickup_type Enum&lt;br&gt;&lt;br&gt;dropoff_type Enum&lt;br&gt;&lt;br&gt;transfer_type Enum&lt;br&gt;&lt;br&gt;min_transfer_time int&lt;br&gt;shape_dist_travelled float" style="shape=partialRectangle;connectable=0;fillColor=none;top=0;left=0;bottom=0;right=0;align=left;spacingLeft=6;overflow=hidden;html=1;whiteSpace=wrap;" parent="BN0zJVYFSK5SitSiGwVD-109" vertex="1">
          <mxGeometry x="60" width="150" height="250" as="geometry">
            <mxRectangle width="150" height="250" as="alternateBounds" />
          </mxGeometry>
        </mxCell>
        <mxCell id="BN0zJVYFSK5SitSiGwVD-125" value="dim_Routes" style="shape=table;startSize=30;container=1;collapsible=1;childLayout=tableLayout;fixedRows=1;rowLines=0;fontStyle=1;align=center;resizeLast=1;html=1;" parent="1" vertex="1">
          <mxGeometry x="580" y="1190" width="180" height="250" as="geometry" />
        </mxCell>
        <mxCell id="BN0zJVYFSK5SitSiGwVD-126" value="" style="shape=tableRow;horizontal=0;startSize=0;swimlaneHead=0;swimlaneBody=0;fillColor=none;collapsible=0;dropTarget=0;points=[[0,0.5],[1,0.5]];portConstraint=eastwest;top=0;left=0;right=0;bottom=1;" parent="BN0zJVYFSK5SitSiGwVD-125" vertex="1">
          <mxGeometry y="30" width="180" height="30" as="geometry" />
        </mxCell>
        <mxCell id="BN0zJVYFSK5SitSiGwVD-127" value="PK" style="shape=partialRectangle;connectable=0;fillColor=none;top=0;left=0;bottom=0;right=0;fontStyle=1;overflow=hidden;whiteSpace=wrap;html=1;" parent="BN0zJVYFSK5SitSiGwVD-126" vertex="1">
          <mxGeometry width="29" height="30" as="geometry">
            <mxRectangle width="29" height="30" as="alternateBounds" />
          </mxGeometry>
        </mxCell>
        <mxCell id="BN0zJVYFSK5SitSiGwVD-128" value="route_id varchar" style="shape=partialRectangle;connectable=0;fillColor=none;top=0;left=0;bottom=0;right=0;align=left;spacingLeft=6;fontStyle=5;overflow=hidden;whiteSpace=wrap;html=1;" parent="BN0zJVYFSK5SitSiGwVD-126" vertex="1">
          <mxGeometry x="29" width="151" height="30" as="geometry">
            <mxRectangle width="151" height="30" as="alternateBounds" />
          </mxGeometry>
        </mxCell>
        <mxCell id="BN0zJVYFSK5SitSiGwVD-132" value="" style="shape=tableRow;horizontal=0;startSize=0;swimlaneHead=0;swimlaneBody=0;fillColor=none;collapsible=0;dropTarget=0;points=[[0,0.5],[1,0.5]];portConstraint=eastwest;top=0;left=0;right=0;bottom=0;" parent="BN0zJVYFSK5SitSiGwVD-125" vertex="1">
          <mxGeometry y="60" width="180" height="130" as="geometry" />
        </mxCell>
        <mxCell id="BN0zJVYFSK5SitSiGwVD-133" value="" style="shape=partialRectangle;connectable=0;fillColor=none;top=0;left=0;bottom=0;right=0;editable=1;overflow=hidden;whiteSpace=wrap;html=1;" parent="BN0zJVYFSK5SitSiGwVD-132" vertex="1">
          <mxGeometry width="29" height="130" as="geometry">
            <mxRectangle width="29" height="130" as="alternateBounds" />
          </mxGeometry>
        </mxCell>
        <mxCell id="BN0zJVYFSK5SitSiGwVD-134" value="route_shortname text&lt;br&gt;&lt;br&gt;route_longname text&lt;br&gt;&lt;br&gt;route_type Enum&lt;br&gt;&lt;br&gt;route_url varchar" style="shape=partialRectangle;connectable=0;fillColor=none;top=0;left=0;bottom=0;right=0;align=left;spacingLeft=6;overflow=hidden;whiteSpace=wrap;html=1;" parent="BN0zJVYFSK5SitSiGwVD-132" vertex="1">
          <mxGeometry x="29" width="151" height="130" as="geometry">
            <mxRectangle width="151" height="130" as="alternateBounds" />
          </mxGeometry>
        </mxCell>
        <mxCell id="BN0zJVYFSK5SitSiGwVD-135" value="" style="shape=tableRow;horizontal=0;startSize=0;swimlaneHead=0;swimlaneBody=0;fillColor=none;collapsible=0;dropTarget=0;points=[[0,0.5],[1,0.5]];portConstraint=eastwest;top=0;left=0;right=0;bottom=0;" parent="BN0zJVYFSK5SitSiGwVD-125" vertex="1">
          <mxGeometry y="190" width="180" height="60" as="geometry" />
        </mxCell>
        <mxCell id="BN0zJVYFSK5SitSiGwVD-136" value="" style="shape=partialRectangle;connectable=0;fillColor=none;top=0;left=0;bottom=0;right=0;editable=1;overflow=hidden;whiteSpace=wrap;html=1;" parent="BN0zJVYFSK5SitSiGwVD-135" vertex="1">
          <mxGeometry width="29" height="60" as="geometry">
            <mxRectangle width="29" height="60" as="alternateBounds" />
          </mxGeometry>
        </mxCell>
        <mxCell id="BN0zJVYFSK5SitSiGwVD-137" value="route_color varchar&lt;br&gt;&lt;br&gt;route_textcolor varchar" style="shape=partialRectangle;connectable=0;fillColor=none;top=0;left=0;bottom=0;right=0;align=left;spacingLeft=6;overflow=hidden;whiteSpace=wrap;html=1;" parent="BN0zJVYFSK5SitSiGwVD-135" vertex="1">
          <mxGeometry x="29" width="151" height="60" as="geometry">
            <mxRectangle width="151" height="60" as="alternateBounds" />
          </mxGeometry>
        </mxCell>
        <mxCell id="BN0zJVYFSK5SitSiGwVD-112" value="dim_stop" style="shape=table;startSize=30;container=1;collapsible=1;childLayout=tableLayout;fixedRows=1;rowLines=0;fontStyle=1;align=center;resizeLast=1;html=1;" parent="1" vertex="1">
          <mxGeometry x="260" y="1920" width="180" height="250" as="geometry" />
        </mxCell>
        <mxCell id="BN0zJVYFSK5SitSiGwVD-113" value="" style="shape=tableRow;horizontal=0;startSize=0;swimlaneHead=0;swimlaneBody=0;fillColor=none;collapsible=0;dropTarget=0;points=[[0,0.5],[1,0.5]];portConstraint=eastwest;top=0;left=0;right=0;bottom=1;" parent="BN0zJVYFSK5SitSiGwVD-112" vertex="1">
          <mxGeometry y="30" width="180" height="30" as="geometry" />
        </mxCell>
        <mxCell id="BN0zJVYFSK5SitSiGwVD-114" value="PK" style="shape=partialRectangle;connectable=0;fillColor=none;top=0;left=0;bottom=0;right=0;fontStyle=1;overflow=hidden;whiteSpace=wrap;html=1;" parent="BN0zJVYFSK5SitSiGwVD-113" vertex="1">
          <mxGeometry width="30" height="30" as="geometry">
            <mxRectangle width="30" height="30" as="alternateBounds" />
          </mxGeometry>
        </mxCell>
        <mxCell id="BN0zJVYFSK5SitSiGwVD-115" value="stop_id varchar" style="shape=partialRectangle;connectable=0;fillColor=none;top=0;left=0;bottom=0;right=0;align=left;spacingLeft=6;fontStyle=5;overflow=hidden;whiteSpace=wrap;html=1;" parent="BN0zJVYFSK5SitSiGwVD-113" vertex="1">
          <mxGeometry x="30" width="150" height="30" as="geometry">
            <mxRectangle width="150" height="30" as="alternateBounds" />
          </mxGeometry>
        </mxCell>
        <mxCell id="BN0zJVYFSK5SitSiGwVD-116" value="" style="shape=tableRow;horizontal=0;startSize=0;swimlaneHead=0;swimlaneBody=0;fillColor=none;collapsible=0;dropTarget=0;points=[[0,0.5],[1,0.5]];portConstraint=eastwest;top=0;left=0;right=0;bottom=0;" parent="BN0zJVYFSK5SitSiGwVD-112" vertex="1">
          <mxGeometry y="60" width="180" height="20" as="geometry" />
        </mxCell>
        <mxCell id="BN0zJVYFSK5SitSiGwVD-117" value="" style="shape=partialRectangle;connectable=0;fillColor=none;top=0;left=0;bottom=0;right=0;editable=1;overflow=hidden;whiteSpace=wrap;html=1;" parent="BN0zJVYFSK5SitSiGwVD-116" vertex="1">
          <mxGeometry width="30" height="20" as="geometry">
            <mxRectangle width="30" height="20" as="alternateBounds" />
          </mxGeometry>
        </mxCell>
        <mxCell id="BN0zJVYFSK5SitSiGwVD-118" value="stop_name varchar" style="shape=partialRectangle;connectable=0;fillColor=none;top=0;left=0;bottom=0;right=0;align=left;spacingLeft=6;overflow=hidden;whiteSpace=wrap;html=1;" parent="BN0zJVYFSK5SitSiGwVD-116" vertex="1">
          <mxGeometry x="30" width="150" height="20" as="geometry">
            <mxRectangle width="150" height="20" as="alternateBounds" />
          </mxGeometry>
        </mxCell>
        <mxCell id="BN0zJVYFSK5SitSiGwVD-119" value="" style="shape=tableRow;horizontal=0;startSize=0;swimlaneHead=0;swimlaneBody=0;fillColor=none;collapsible=0;dropTarget=0;points=[[0,0.5],[1,0.5]];portConstraint=eastwest;top=0;left=0;right=0;bottom=0;" parent="BN0zJVYFSK5SitSiGwVD-112" vertex="1">
          <mxGeometry y="80" width="180" height="30" as="geometry" />
        </mxCell>
        <mxCell id="BN0zJVYFSK5SitSiGwVD-120" value="" style="shape=partialRectangle;connectable=0;fillColor=none;top=0;left=0;bottom=0;right=0;editable=1;overflow=hidden;whiteSpace=wrap;html=1;" parent="BN0zJVYFSK5SitSiGwVD-119" vertex="1">
          <mxGeometry width="30" height="30" as="geometry">
            <mxRectangle width="30" height="30" as="alternateBounds" />
          </mxGeometry>
        </mxCell>
        <mxCell id="BN0zJVYFSK5SitSiGwVD-121" value="stop_desc text" style="shape=partialRectangle;connectable=0;fillColor=none;top=0;left=0;bottom=0;right=0;align=left;spacingLeft=6;overflow=hidden;whiteSpace=wrap;html=1;" parent="BN0zJVYFSK5SitSiGwVD-119" vertex="1">
          <mxGeometry x="30" width="150" height="30" as="geometry">
            <mxRectangle width="150" height="30" as="alternateBounds" />
          </mxGeometry>
        </mxCell>
        <mxCell id="BN0zJVYFSK5SitSiGwVD-122" value="" style="shape=tableRow;horizontal=0;startSize=0;swimlaneHead=0;swimlaneBody=0;fillColor=none;collapsible=0;dropTarget=0;points=[[0,0.5],[1,0.5]];portConstraint=eastwest;top=0;left=0;right=0;bottom=0;" parent="BN0zJVYFSK5SitSiGwVD-112" vertex="1">
          <mxGeometry y="110" width="180" height="140" as="geometry" />
        </mxCell>
        <mxCell id="BN0zJVYFSK5SitSiGwVD-123" value="" style="shape=partialRectangle;connectable=0;fillColor=none;top=0;left=0;bottom=0;right=0;editable=1;overflow=hidden;whiteSpace=wrap;html=1;" parent="BN0zJVYFSK5SitSiGwVD-122" vertex="1">
          <mxGeometry width="30" height="140" as="geometry">
            <mxRectangle width="30" height="140" as="alternateBounds" />
          </mxGeometry>
        </mxCell>
        <mxCell id="BN0zJVYFSK5SitSiGwVD-124" value="stop_lat float&lt;br&gt;&lt;br&gt;stop_lon float&lt;br&gt;&lt;br&gt;stop_url varchar&lt;br&gt;&lt;br&gt;parent_station varchar&lt;br&gt;&lt;br&gt;loc_type Enum" style="shape=partialRectangle;connectable=0;fillColor=none;top=0;left=0;bottom=0;right=0;align=left;spacingLeft=6;overflow=hidden;whiteSpace=wrap;html=1;" parent="BN0zJVYFSK5SitSiGwVD-122" vertex="1">
          <mxGeometry x="30" width="150" height="140" as="geometry">
            <mxRectangle width="150" height="140" as="alternateBounds" />
          </mxGeometry>
        </mxCell>
        <mxCell id="BN0zJVYFSK5SitSiGwVD-138" value="dim_trip" style="shape=table;startSize=30;container=1;collapsible=1;childLayout=tableLayout;fixedRows=1;rowLines=0;fontStyle=1;align=center;resizeLast=1;html=1;whiteSpace=wrap;" parent="1" vertex="1">
          <mxGeometry x="50" y="1220" width="200" height="100" as="geometry" />
        </mxCell>
        <mxCell id="BN0zJVYFSK5SitSiGwVD-139" value="" style="shape=tableRow;horizontal=0;startSize=0;swimlaneHead=0;swimlaneBody=0;fillColor=none;collapsible=0;dropTarget=0;points=[[0,0.5],[1,0.5]];portConstraint=eastwest;top=0;left=0;right=0;bottom=0;html=1;" parent="BN0zJVYFSK5SitSiGwVD-138" vertex="1">
          <mxGeometry y="30" width="200" height="30" as="geometry" />
        </mxCell>
        <mxCell id="BN0zJVYFSK5SitSiGwVD-140" value="PK" style="shape=partialRectangle;connectable=0;fillColor=none;top=0;left=0;bottom=0;right=0;fontStyle=1;overflow=hidden;html=1;whiteSpace=wrap;" parent="BN0zJVYFSK5SitSiGwVD-139" vertex="1">
          <mxGeometry width="60" height="30" as="geometry">
            <mxRectangle width="60" height="30" as="alternateBounds" />
          </mxGeometry>
        </mxCell>
        <mxCell id="BN0zJVYFSK5SitSiGwVD-141" value="trip_id varchar" style="shape=partialRectangle;connectable=0;fillColor=none;top=0;left=0;bottom=0;right=0;align=left;spacingLeft=6;fontStyle=5;overflow=hidden;html=1;whiteSpace=wrap;" parent="BN0zJVYFSK5SitSiGwVD-139" vertex="1">
          <mxGeometry x="60" width="140" height="30" as="geometry">
            <mxRectangle width="140" height="30" as="alternateBounds" />
          </mxGeometry>
        </mxCell>
        <mxCell id="BN0zJVYFSK5SitSiGwVD-148" value="" style="shape=tableRow;horizontal=0;startSize=0;swimlaneHead=0;swimlaneBody=0;fillColor=none;collapsible=0;dropTarget=0;points=[[0,0.5],[1,0.5]];portConstraint=eastwest;top=0;left=0;right=0;bottom=0;html=1;" parent="BN0zJVYFSK5SitSiGwVD-138" vertex="1">
          <mxGeometry y="60" width="200" height="40" as="geometry" />
        </mxCell>
        <mxCell id="BN0zJVYFSK5SitSiGwVD-149" value="" style="shape=partialRectangle;connectable=0;fillColor=none;top=0;left=0;bottom=0;right=0;editable=1;overflow=hidden;html=1;whiteSpace=wrap;" parent="BN0zJVYFSK5SitSiGwVD-148" vertex="1">
          <mxGeometry width="60" height="40" as="geometry">
            <mxRectangle width="60" height="40" as="alternateBounds" />
          </mxGeometry>
        </mxCell>
        <mxCell id="BN0zJVYFSK5SitSiGwVD-150" value="trip_headsign varchar&lt;br&gt;" style="shape=partialRectangle;connectable=0;fillColor=none;top=0;left=0;bottom=0;right=0;align=left;spacingLeft=6;overflow=hidden;html=1;whiteSpace=wrap;" parent="BN0zJVYFSK5SitSiGwVD-148" vertex="1">
          <mxGeometry x="60" width="140" height="40" as="geometry">
            <mxRectangle width="140" height="40" as="alternateBounds" />
          </mxGeometry>
        </mxCell>
        <mxCell id="BN0zJVYFSK5SitSiGwVD-156" value="" style="endArrow=none;html=1;rounded=0;exitX=0;exitY=0.017;exitDx=0;exitDy=0;exitPerimeter=0;entryX=1;entryY=0.017;entryDx=0;entryDy=0;entryPerimeter=0;" parent="BN0zJVYFSK5SitSiGwVD-138" source="BN0zJVYFSK5SitSiGwVD-148" target="BN0zJVYFSK5SitSiGwVD-148" edge="1">
          <mxGeometry relative="1" as="geometry">
            <mxPoint x="190" y="260" as="sourcePoint" />
            <mxPoint x="350" y="260" as="targetPoint" />
          </mxGeometry>
        </mxCell>
        <mxCell id="G7-1C7XBiYFVguSbTgOa-1" value="&lt;font style=&quot;font-size: 24px;&quot;&gt;STAR SCHEMA&lt;/font&gt;" style="text;html=1;strokeColor=none;fillColor=none;align=center;verticalAlign=middle;whiteSpace=wrap;rounded=0;" parent="1" vertex="1">
          <mxGeometry x="330" y="1160" width="240" height="50" as="geometry" />
        </mxCell>
        <mxCell id="G7-1C7XBiYFVguSbTgOa-2" value="&lt;font style=&quot;font-size: 24px;&quot;&gt;ER Diagram&lt;/font&gt;" style="text;html=1;strokeColor=none;fillColor=none;align=center;verticalAlign=middle;whiteSpace=wrap;rounded=0;" parent="1" vertex="1">
          <mxGeometry x="320" y="50" width="160" height="30" as="geometry" />
        </mxCell>
        <mxCell id="G7-1C7XBiYFVguSbTgOa-3" value="" style="edgeStyle=entityRelationEdgeStyle;fontSize=12;html=1;endArrow=ERoneToMany;startArrow=ERzeroToMany;rounded=0;exitX=1;exitY=0.5;exitDx=0;exitDy=0;" parent="1" source="BN0zJVYFSK5SitSiGwVD-68" target="BN0zJVYFSK5SitSiGwVD-11" edge="1">
          <mxGeometry width="100" height="100" relative="1" as="geometry">
            <mxPoint x="40" y="980" as="sourcePoint" />
            <mxPoint x="100" y="350" as="targetPoint" />
            <Array as="points">
              <mxPoint x="-251" y="740" />
              <mxPoint x="79" y="790" />
              <mxPoint x="110" y="620" />
              <mxPoint x="110" y="440" />
              <mxPoint x="69" y="720" />
              <mxPoint x="69" y="570" />
              <mxPoint x="89" y="540" />
              <mxPoint x="89" y="590" />
            </Array>
          </mxGeometry>
        </mxCell>
        <mxCell id="BN0zJVYFSK5SitSiGwVD-41" value="stop" style="shape=table;startSize=30;container=1;collapsible=1;childLayout=tableLayout;fixedRows=1;rowLines=0;fontStyle=1;align=center;resizeLast=1;html=1;" parent="1" vertex="1">
          <mxGeometry x="280" y="690" width="180" height="290" as="geometry" />
        </mxCell>
        <mxCell id="BN0zJVYFSK5SitSiGwVD-42" value="" style="shape=tableRow;horizontal=0;startSize=0;swimlaneHead=0;swimlaneBody=0;fillColor=none;collapsible=0;dropTarget=0;points=[[0,0.5],[1,0.5]];portConstraint=eastwest;top=0;left=0;right=0;bottom=1;" parent="BN0zJVYFSK5SitSiGwVD-41" vertex="1">
          <mxGeometry y="30" width="180" height="30" as="geometry" />
        </mxCell>
        <mxCell id="BN0zJVYFSK5SitSiGwVD-43" value="PK" style="shape=partialRectangle;connectable=0;fillColor=none;top=0;left=0;bottom=0;right=0;fontStyle=1;overflow=hidden;whiteSpace=wrap;html=1;" parent="BN0zJVYFSK5SitSiGwVD-42" vertex="1">
          <mxGeometry width="30" height="30" as="geometry">
            <mxRectangle width="30" height="30" as="alternateBounds" />
          </mxGeometry>
        </mxCell>
        <mxCell id="BN0zJVYFSK5SitSiGwVD-44" value="stop_id varchar" style="shape=partialRectangle;connectable=0;fillColor=none;top=0;left=0;bottom=0;right=0;align=left;spacingLeft=6;fontStyle=5;overflow=hidden;whiteSpace=wrap;html=1;" parent="BN0zJVYFSK5SitSiGwVD-42" vertex="1">
          <mxGeometry x="30" width="150" height="30" as="geometry">
            <mxRectangle width="150" height="30" as="alternateBounds" />
          </mxGeometry>
        </mxCell>
        <mxCell id="BN0zJVYFSK5SitSiGwVD-45" value="" style="shape=tableRow;horizontal=0;startSize=0;swimlaneHead=0;swimlaneBody=0;fillColor=none;collapsible=0;dropTarget=0;points=[[0,0.5],[1,0.5]];portConstraint=eastwest;top=0;left=0;right=0;bottom=0;" parent="BN0zJVYFSK5SitSiGwVD-41" vertex="1">
          <mxGeometry y="60" width="180" height="30" as="geometry" />
        </mxCell>
        <mxCell id="BN0zJVYFSK5SitSiGwVD-46" value="" style="shape=partialRectangle;connectable=0;fillColor=none;top=0;left=0;bottom=0;right=0;editable=1;overflow=hidden;whiteSpace=wrap;html=1;" parent="BN0zJVYFSK5SitSiGwVD-45" vertex="1">
          <mxGeometry width="30" height="30" as="geometry">
            <mxRectangle width="30" height="30" as="alternateBounds" />
          </mxGeometry>
        </mxCell>
        <mxCell id="BN0zJVYFSK5SitSiGwVD-47" value="stop_name varchar" style="shape=partialRectangle;connectable=0;fillColor=none;top=0;left=0;bottom=0;right=0;align=left;spacingLeft=6;overflow=hidden;whiteSpace=wrap;html=1;" parent="BN0zJVYFSK5SitSiGwVD-45" vertex="1">
          <mxGeometry x="30" width="150" height="30" as="geometry">
            <mxRectangle width="150" height="30" as="alternateBounds" />
          </mxGeometry>
        </mxCell>
        <mxCell id="BN0zJVYFSK5SitSiGwVD-48" value="" style="shape=tableRow;horizontal=0;startSize=0;swimlaneHead=0;swimlaneBody=0;fillColor=none;collapsible=0;dropTarget=0;points=[[0,0.5],[1,0.5]];portConstraint=eastwest;top=0;left=0;right=0;bottom=0;" parent="BN0zJVYFSK5SitSiGwVD-41" vertex="1">
          <mxGeometry y="90" width="180" height="30" as="geometry" />
        </mxCell>
        <mxCell id="BN0zJVYFSK5SitSiGwVD-49" value="" style="shape=partialRectangle;connectable=0;fillColor=none;top=0;left=0;bottom=0;right=0;editable=1;overflow=hidden;whiteSpace=wrap;html=1;" parent="BN0zJVYFSK5SitSiGwVD-48" vertex="1">
          <mxGeometry width="30" height="30" as="geometry">
            <mxRectangle width="30" height="30" as="alternateBounds" />
          </mxGeometry>
        </mxCell>
        <mxCell id="BN0zJVYFSK5SitSiGwVD-50" value="stop_desc text" style="shape=partialRectangle;connectable=0;fillColor=none;top=0;left=0;bottom=0;right=0;align=left;spacingLeft=6;overflow=hidden;whiteSpace=wrap;html=1;" parent="BN0zJVYFSK5SitSiGwVD-48" vertex="1">
          <mxGeometry x="30" width="150" height="30" as="geometry">
            <mxRectangle width="150" height="30" as="alternateBounds" />
          </mxGeometry>
        </mxCell>
        <mxCell id="BN0zJVYFSK5SitSiGwVD-51" value="" style="shape=tableRow;horizontal=0;startSize=0;swimlaneHead=0;swimlaneBody=0;fillColor=none;collapsible=0;dropTarget=0;points=[[0,0.5],[1,0.5]];portConstraint=eastwest;top=0;left=0;right=0;bottom=0;" parent="BN0zJVYFSK5SitSiGwVD-41" vertex="1">
          <mxGeometry y="120" width="180" height="170" as="geometry" />
        </mxCell>
        <mxCell id="BN0zJVYFSK5SitSiGwVD-52" value="" style="shape=partialRectangle;connectable=0;fillColor=none;top=0;left=0;bottom=0;right=0;editable=1;overflow=hidden;whiteSpace=wrap;html=1;" parent="BN0zJVYFSK5SitSiGwVD-51" vertex="1">
          <mxGeometry width="30" height="170" as="geometry">
            <mxRectangle width="30" height="170" as="alternateBounds" />
          </mxGeometry>
        </mxCell>
        <mxCell id="BN0zJVYFSK5SitSiGwVD-53" value="stop_lat float&lt;br&gt;&lt;br&gt;stop_lon float&lt;br&gt;&lt;br&gt;zone_id varchar&lt;br&gt;&lt;br&gt;stop_url varchar&lt;br&gt;&lt;br&gt;loc_type Enum&lt;br&gt;&lt;br&gt;parent_station varchar" style="shape=partialRectangle;connectable=0;fillColor=none;top=0;left=0;bottom=0;right=0;align=left;spacingLeft=6;overflow=hidden;whiteSpace=wrap;html=1;" parent="BN0zJVYFSK5SitSiGwVD-51" vertex="1">
          <mxGeometry x="30" width="150" height="170" as="geometry">
            <mxRectangle width="150" height="170" as="alternateBounds" />
          </mxGeometry>
        </mxCell>
        <mxCell id="koIS8riEq-aSpSWUTt4T-1" value="" style="edgeStyle=entityRelationEdgeStyle;fontSize=12;html=1;endArrow=ERmandOne;startArrow=ERmandOne;rounded=0;entryX=1.004;entryY=0.669;entryDx=0;entryDy=0;entryPerimeter=0;" parent="BN0zJVYFSK5SitSiGwVD-41" source="BN0zJVYFSK5SitSiGwVD-51" target="BN0zJVYFSK5SitSiGwVD-51" edge="1">
          <mxGeometry width="100" height="100" relative="1" as="geometry">
            <mxPoint x="90" y="240" as="sourcePoint" />
            <mxPoint x="-10" y="180" as="targetPoint" />
            <Array as="points">
              <mxPoint x="270" y="205" />
            </Array>
          </mxGeometry>
        </mxCell>
      </root>
    </mxGraphModel>
  </diagram>
</mxfile>
